<svg xmlns="http://www.w3.org/2000/svg" width="32" height="32" fill="none"><g clip-path="url(#a)"><path fill="url(#b)" d="M16 8.667a6.669 6.669 0 0 1 6.667 6.666c0 .68-.134 1.334-.32 1.947l4.08 4.08a15.735 15.735 0 0 0 4.24-6.04c-2.307-5.84-8-9.987-14.667-9.987a15.8 15.8 0 0 0-4.853.76l2.893 2.894c.627-.187 1.28-.32 1.96-.32ZM3.614 4.213c-.52.52-.52 1.36 0 1.88L6.24 8.72a15.856 15.856 0 0 0-4.907 6.613c2.307 5.854 8 10 14.667 10 2.027 0 3.96-.4 5.747-1.093l3.627 3.627c.52.52 1.36.52 1.88 0 .52-.52.52-1.36 0-1.88L5.506 4.213a1.344 1.344 0 0 0-1.893 0ZM16 22a6.67 6.67 0 0 1-6.666-6.667c0-1.026.24-2 .653-2.853l2.093 2.093c-.04.24-.08.494-.08.76 0 2.214 1.787 4 4 4 .267 0 .507-.04.76-.093l2.093 2.093A6.417 6.417 0 0 1 16 22Zm3.96-7.107a3.959 3.959 0 0 0-3.52-3.52l3.52 3.52Z"/></g><defs><linearGradient id="b" x1="16" x2="16" y1="3.823" y2="28.257" gradientUnits="userSpaceOnUse"><stop stop-color="var(--color-primary-300)"/><stop offset="1" stop-color="var(--color-primary-500)"/></linearGradient><clipPath id="a"><path fill="#fff" d="M0 0h32v32H0z"/></clipPath></defs></svg>
