<svg xmlns="http://www.w3.org/2000/svg" width="32" height="32" fill="none"><g clip-path="url(#a)"><path fill="url(#b)" d="M16 5.333c-6.666 0-12.36 4.147-14.666 10 2.306 5.854 8 10 14.666 10 6.667 0 12.36-4.146 14.667-10-2.307-5.853-8-10-14.667-10ZM16 22a6.67 6.67 0 0 1-6.666-6.667A6.67 6.67 0 0 1 16 8.667a6.669 6.669 0 0 1 6.667 6.666A6.67 6.67 0 0 1 16 22Zm0-10.667c-2.213 0-4 1.787-4 4 0 2.214 1.787 4 4 4s4-1.786 4-4c0-2.213-1.787-4-4-4Z"/></g><defs><linearGradient id="b" x1="16" x2="16" y1="5.333" y2="25.333" gradientUnits="userSpaceOnUse"><stop stop-color="var(--color-primary-300)"/><stop offset="1" stop-color="var(--color-primary-500)"/></linearGradient><clipPath id="a"><path fill="#fff" d="M0 0h32v32H0z"/></clipPath></defs></svg>
